                                                                        S      1
1H,,1H;,,                                                               G      1
73HC:\Users\Tufail Mabood\Desktop\ASTM C38 Cylinders\Straight Fibers\CylG      2
.igs,                                                                   G      3
26HRhinoceros ( Apr 10 2025 ),31HTrout Lake IGES 012 Apr 10 2025,       G      4
32,38,6,308,15,                                                         G      5
,                                                                       G      6
1.0D0,2,2HMM,1,0.254D0,13H260212.101032,                                G      7
0.01D0,                                                                 G      8
300D0,                                                                  G      9
,                                                                       G     10
,                                                                       G     11
10,0,13H260212.101032;                                                  G     12
     314       1       0       0       0       0       0       000000200D      1
     314       0       1       1       0       0       0   COLOR       0D      2
     406       2       0       0       1       0       0       000000300D      3
     406       0      -1       1       3       0       0LEVELDEF       0D      4
     128       3       0       0       1       0       0       000010000D      5
     128       0      -1       4       8       0       0   Shell       0D      6
     126       7       0       0       1       0       0       000010000D      7
     126       0      -1      12       2       0       0   Shell       1D      8
     126      19       0       0       1       0       0       000010500D      9
     126       0      -1      11       2       0       0   Shell       1D     10
     141      30       0       0       1       0       0       000010000D     11
     141       0      -1       1       0       0       0   Shell       1D     12
     143      31       0       0       1       0       0       000000000D     13
     143       0      -1       1       0       0       0   Shell       1D     14
     128      32       0       0       1       0       0       000000000D     15
     128       0      -1      19       0       0       0   Shell       2D     16
     128      51       0       0       1       0       0       000010000D     17
     128       0      -1       4       8       0       0   Shell       0D     18
     126      55       0       0       1       0       0       000010000D     19
     126       0      -1      12       2       0       0   Shell       1D     20
     126      67       0       0       1       0       0       000010500D     21
     126       0      -1      11       2       0       0   Shell       1D     22
     141      78       0       0       1       0       0       000010000D     23
     141       0      -1       1       0       0       0   Shell       1D     24
     143      79       0       0       1       0       0       000000000D     25
     143       0      -1       1       0       0       0   Shell       3D     26
314,0.0,0.0,0.0,20HRGB(   0,   0,   0 );                         0000001P      1
406,2,1,7HDefault;                                               0000003P      2
128,1,1,1,1,0,0,1,0,0,-76.5D0,-76.5D0,76.5D0,76.5D0,-151.5D0,    0000005P      3
-151.5D0,1.5D0,1.5D0,1.0D0,1.0D0,1.0D0,1.0D0,-76.5D0,-76.5D0,    0000005P      4
0.0D0,-76.5D0,76.5D0,0.0D0,76.5D0,-76.5D0,0.0D0,76.5D0,76.5D0,   0000005P      5
0.0D0,-76.5D0,76.5D0,-151.5D0,1.5D0;                             0000005P      6
126,8,2,1,1,0,0,-471.238898038469D0,-471.238898038469D0,         0000007P      7
-471.238898038469D0,-353.4291735288517D0,-353.4291735288517D0,   0000007P      8
-235.6194490192345D0,-235.6194490192345D0,-117.8097245096172D0,  0000007P      9
-117.8097245096172D0,-0.0D0,-0.0D0,-0.0D0,1.0D0,                 0000007P     10
0.7071067811865476D0,1.0D0,0.7071067811865476D0,1.0D0,           0000007P     11
0.7071067811865476D0,1.0D0,0.7071067811865476D0,1.0D0,75.0D0,    0000007P     12
0.0D0,0.0D0,74.99999999999997D0,-75.0D0,0.0D0,                   0000007P     13
-1.377727649040772D-14,-75.0D0,0.0D0,-75.0D0,                    0000007P     14
-74.99999999999999D0,0.0D0,-75.0D0,9.184850993605149D-15,0.0D0,  0000007P     15
-74.99999999999999D0,75.0D0,0.0D0,4.592425496802574D-15,75.0D0,  0000007P     16
0.0D0,75.0D0,75.0D0,0.0D0,75.0D0,0.0D0,0.0D0,                    0000007P     17
-471.238898038469D0,-0.0D0,0.0D0,0.0D0,1.0D0;                    0000007P     18
126,8,2,1,1,0,0,-471.238898038469D0,-471.238898038469D0,         0000009P     19
-471.238898038469D0,-353.4291735288517D0,-353.4291735288517D0,   0000009P     20
-235.6194490192345D0,-235.6194490192345D0,-117.8097245096172D0,  0000009P     21
-117.8097245096172D0,-0.0D0,-0.0D0,-0.0D0,1.0D0,                 0000009P     22
0.7071067811865476D0,1.0D0,0.7071067811865476D0,1.0D0,           0000009P     23
0.7071067811865476D0,1.0D0,0.7071067811865476D0,1.0D0,0.0D0,     0000009P     24
0.0D0,0.0D0,-75.0D0,-2.009718347115232D-14,0.0D0,-75.0D0,        0000009P     25
-75.00000000000001D0,0.0D0,-74.99999999999999D0,-150.0D0,0.0D0,  0000009P     26
9.184850993605149D-15,-150.0D0,0.0D0,75.0D0,-150.0D0,0.0D0,      0000009P     27
75.0D0,-75.0D0,0.0D0,75.0D0,0.0D0,0.0D0,0.0D0,0.0D0,0.0D0,       0000009P     28
-471.238898038469D0,-0.0D0,0.0D0,0.0D0,1.0D0;                    0000009P     29
141,1,3,5,1,7,1,1,9;                                             0000011P     30
143,1,5,1,11;                                                    0000013P     31
128,8,1,2,1,1,0,0,0,0,0.0D0,0.0D0,0.0D0,117.8097245096172D0,     0000015P     32
117.8097245096172D0,235.6194490192345D0,235.6194490192345D0,     0000015P     33
353.4291735288517D0,353.4291735288517D0,471.238898038469D0,      0000015P     34
471.238898038469D0,471.238898038469D0,0.0D0,0.0D0,300.0D0,       0000015P     35
300.0D0,1.0D0,0.7071067811865476D0,1.0D0,0.7071067811865476D0,   0000015P     36
1.0D0,0.7071067811865476D0,1.0D0,0.7071067811865476D0,1.0D0,     0000015P     37
1.0D0,0.7071067811865476D0,1.0D0,0.7071067811865476D0,1.0D0,     0000015P     38
0.7071067811865476D0,1.0D0,0.7071067811865476D0,1.0D0,75.0D0,    0000015P     39
0.0D0,0.0D0,75.0D0,75.0D0,0.0D0,4.592425496802574D-15,75.0D0,    0000015P     40
0.0D0,-74.99999999999999D0,75.0D0,0.0D0,-75.0D0,                 0000015P     41
9.184850993605149D-15,0.0D0,-75.0D0,-74.99999999999999D0,0.0D0,  0000015P     42
-1.377727649040772D-14,-75.0D0,0.0D0,74.99999999999997D0,        0000015P     43
-75.0D0,0.0D0,75.0D0,0.0D0,0.0D0,75.0D0,0.0D0,300.0D0,75.0D0,    0000015P     44
75.0D0,300.0D0,4.592425496802574D-15,75.0D0,300.0D0,             0000015P     45
-74.99999999999999D0,75.0D0,300.0D0,-75.0D0,                     0000015P     46
9.184850993605149D-15,300.0D0,-75.0D0,-74.99999999999999D0,      0000015P     47
300.0D0,-1.377727649040772D-14,-75.0D0,300.0D0,                  0000015P     48
74.99999999999997D0,-75.0D0,300.0D0,75.0D0,0.0D0,300.0D0,0.0D0,  0000015P     49
471.238898038469D0,0.0D0,300.0D0;                                0000015P     50
128,1,1,1,1,0,0,1,0,0,-151.5D0,-151.5D0,1.5D0,1.5D0,-76.5D0,     0000017P     51
-76.5D0,76.5D0,76.5D0,1.0D0,1.0D0,1.0D0,1.0D0,-76.5D0,-76.5D0,   0000017P     52
300.0D0,76.5D0,-76.5D0,300.0D0,-76.5D0,76.5D0,300.0D0,76.5D0,    0000017P     53
76.5D0,300.0D0,-151.5D0,1.5D0,-76.5D0,76.5D0;                    0000017P     54
126,8,2,1,1,0,0,0.0D0,0.0D0,0.0D0,117.8097245096172D0,           0000019P     55
117.8097245096172D0,235.6194490192345D0,235.6194490192345D0,     0000019P     56
353.4291735288517D0,353.4291735288517D0,471.238898038469D0,      0000019P     57
471.238898038469D0,471.238898038469D0,1.0D0,                     0000019P     58
0.7071067811865476D0,1.0D0,0.7071067811865476D0,1.0D0,           0000019P     59
0.7071067811865476D0,1.0D0,0.7071067811865476D0,1.0D0,75.0D0,    0000019P     60
0.0D0,300.0D0,75.0D0,75.0D0,300.0D0,4.592425496802574D-15,       0000019P     61
75.0D0,300.0D0,-74.99999999999999D0,75.0D0,300.0D0,-75.0D0,      0000019P     62
9.184850993605149D-15,300.0D0,-75.0D0,-74.99999999999999D0,      0000019P     63
300.0D0,-1.377727649040772D-14,-75.0D0,300.0D0,                  0000019P     64
74.99999999999997D0,-75.0D0,300.0D0,75.0D0,0.0D0,300.0D0,0.0D0,  0000019P     65
471.238898038469D0,0.0D0,0.0D0,1.0D0;                            0000019P     66
126,8,2,1,1,0,0,0.0D0,0.0D0,0.0D0,117.8097245096172D0,           0000021P     67
117.8097245096172D0,235.6194490192345D0,235.6194490192345D0,     0000021P     68
353.4291735288517D0,353.4291735288517D0,471.238898038469D0,      0000021P     69
471.238898038469D0,471.238898038469D0,1.0D0,                     0000021P     70
0.7071067811865476D0,1.0D0,0.7071067811865476D0,1.0D0,           0000021P     71
0.7071067811865476D0,1.0D0,0.7071067811865476D0,1.0D0,0.0D0,     0000021P     72
0.0D0,0.0D0,0.0D0,75.0D0,0.0D0,-75.0D0,75.0D0,0.0D0,-150.0D0,    0000021P     73
75.0D0,0.0D0,-150.0D0,9.184850993605149D-15,0.0D0,-150.0D0,      0000021P     74
-74.99999999999999D0,0.0D0,-75.00000000000001D0,-75.0D0,0.0D0,   0000021P     75
-2.009718347115232D-14,-75.0D0,0.0D0,0.0D0,0.0D0,0.0D0,0.0D0,    0000021P     76
471.238898038469D0,0.0D0,0.0D0,1.0D0;                            0000021P     77
141,1,3,17,1,19,1,1,21;                                          0000023P     78
143,1,17,1,23;                                                   0000025P     79
S0000001G0000012D0000026P0000079                                        T      1
